{"title":"RHCP - Red Hot Chili Peppers - Rock in Rio 2011","uid":6706330,"size":3427735598,"categoryP":"video","categoryS":"tv_shows","magnet":"?xt=urn:btih:87fadba957c1b4cd01d8e8af03c4df75fa528d41&amp;dn=RHCP+-+Red+Hot+Chili+Peppers+-+Rock+in+Rio+2011&amp;tr=udp%3A%2F%2Ftracker.openbittorrent.com%3A80&amp;tr=udp%3A%2F%2Fopen.demonii.com%3A1337&amp;tr=udp%3A%2F%2Ftracker.coppersurfer.tk%3A6969&amp;tr=udp%3A%2F%2Fexodus.desync.com%3A6969","seeders":0,"leechers":0,"uploader":"downfree","files":2,"time":1317182514,"description":"[b]RHCP - Red Hot Chili Peppers - Rock in Rio 2011[/b]\n\n[img]http://img560.imageshack.us/img560/8996/rockinrio.png[/img]\n\n[img]http://img339.imageshack.us/img339/867/vlcsnap2011092513h46m03.png[/img]\n\n[img]http://img6.imageshack.us/img6/6145/vlcsnap2011092513h48m28.png[/img]\n\n[img]http://img13.imageshack.us/img13/2289/vlcsnap2011092513h49m48.png[/img]\n\n[img]http://img844.imageshack.us/img844/2717/vlcsnap2011092513h50m24.png[/img]\n\n   [b]General[/b]\n\n      Format : MPEG-PS\n      File size : 3.19 GiB\n      Duration : 1h 41mn\n      Overall bit rate : 4 524 Kbps\n\n   [b]Video[/b]\n\n      ID : 224 (0xE0)\n      Format : MPEG Video\n      Format version : Version 2\n      Format profile : Main@Main\n      Format settings, BVOP : Yes\n      Format settings, Matrix : Default\n      Duration : 1h 41mn\n      Bit rate mode : Variable\n      Bit rate : 4 050 Kbps\n      Width : 720 pixels\n      Height : 480 pixels\n      Display aspect ratio : 4:3\n      Frame rate : 29.970 fps\n      Standard : NTSC\n      Color space : YUV\n      Chroma subsampling : 4:2:0\n      Bit depth : 8 bits\n      Scan type : Interlaced\n      Scan order : Top Field First\n      Compression mode : Lossy\n      Bits/(Pixel*Frame) : 0.391\n      Stream size : 2.86 GiB (90%)\n\n   [b]Audio[/b]\n\n      ID : 189 (0xBD)-128 (0x80)\n      Format : AC-3\n      Format/Info : Audio Coding 3\n      Mode extension : CM (complete main)\n      Muxing mode : DVD-Video\n      Duration : 1h 41mn\n      Bit rate mode : Constant\n      Bit rate : 384 Kbps\n      Channel(s) : 2 channels\n      Channel positions : Front: L R\n      Sampling rate : 48.0 KHz\n      Bit depth : 16 bits\n      Compression mode : Lossy\n      Stream size : 277 MiB (8%)\n\n[b]MotÃƒÂ¶rhead - Rock in Rio 2011:[/b]\n[url]http://rcknr.io/SLPKNTnFA[/url]\n\n[b]Slipknot - Rock in Rio 2011:[/b]\n[url]http://rcknr.io/JOSSoVh[/url]\n\n[img]http://img15.imageshack.us/img15/1050/brazilflagicon.png[/img]\n","torrent":{"xt":"urn:btih:87fadba957c1b4cd01d8e8af03c4df75fa528d41","amp;dn":"RHCP+-+Red+Hot+Chili+Peppers+-+Rock+in+Rio+2011","amp;tr":["udp%3A%2F%2Ftracker.openbittorrent.com%3A80","udp%3A%2F%2Fopen.demonii.com%3A1337","udp%3A%2F%2Ftracker.coppersurfer.tk%3A6969","udp%3A%2F%2Fexodus.desync.com%3A6969"],"infoHash":"87fadba957c1b4cd01d8e8af03c4df75fa528d41","infoHashBuffer":{"type":"Buffer","data":[135,250,219,169,87,193,180,205,1,216,232,175,3,196,223,117,250,82,141,65]},"announce":[],"urlList":[]}}